<svg width="17" height="17" viewBox="0 0 17 17" fill="none" xmlns="http://www.w3.org/2000/svg">
<path d="M12.4991 3.2689e-05C10.02 0.00999361 8.02778 2.30765 8.02778 5.0967V7.43752H1.41667C0.634549 7.43752 0 8.15138 0 9.03127V15.4063C0 16.2861 0.634549 17 1.41667 17H11.8056C12.5877 17 13.2222 16.2861 13.2222 15.4063V9.03127C13.2222 8.15138 12.5877 7.43752 11.8056 7.43752H10.3889V5.07678C10.3889 3.76194 11.3245 2.66956 12.4932 2.65628C13.6738 2.643 14.6389 3.7221 14.6389 5.0469V7.70314C14.6389 8.14474 14.9547 8.50002 15.3472 8.50002H16.2917C16.6842 8.50002 17 8.14474 17 7.70314V5.0469C17 2.25784 14.9783 -0.00992823 12.4991 3.2689e-05Z" fill="white"/>
</svg>
