<svg width="17" height="18" viewBox="0 0 17 18" fill="none" xmlns="http://www.w3.org/2000/svg">
<path d="M8.5 10.125C11.1396 10.125 13.2812 7.85742 13.2812 5.0625C13.2812 2.26758 11.1396 0 8.5 0C5.86035 0 3.71875 2.26758 3.71875 5.0625C3.71875 7.85742 5.86035 10.125 8.5 10.125ZM12.75 11.25H10.9205C10.1834 11.6086 9.36328 11.8125 8.5 11.8125C7.63672 11.8125 6.81992 11.6086 6.07949 11.25H4.25C1.90254 11.25 0 13.2645 0 15.75V16.3125C0 17.2441 0.713867 18 1.59375 18H15.4062C16.2861 18 17 17.2441 17 16.3125V15.75C17 13.2645 15.0975 11.25 12.75 11.25Z" fill="#AAAAAA"/>
</svg>
