<svg width="43" height="43" viewBox="0 0 49 49" fill="none" xmlns="http://www.w3.org/2000/svg"><path d="M19.5857 22.3992C18.4791 22.3992 17.6073 23.369 17.6073 24.5531C17.6073 25.7332 18.4995 26.7071 19.5857 26.7071C20.6902 26.7071 21.562 25.7332 21.562 24.5531C21.5845 23.3669 20.6902 22.3992 19.5857 22.3992ZM26.6662 22.3992C25.5596 22.3992 24.6878 23.369 24.6878 24.5531C24.6878 25.7332 25.58 26.7071 26.6662 26.7071C27.7707 26.7071 28.6425 25.7332 28.6425 24.5531C28.6405 23.3669 27.7707 22.3992 26.6662 22.3992Z" fill="#B1B1B1"/><path d="M36.0926 6.125H10.1001C9.57678 6.12634 9.0588 6.23075 8.57579 6.43227C8.09278 6.63379 7.65419 6.92847 7.28507 7.29949C6.91594 7.67051 6.62351 8.11061 6.42447 8.59464C6.22543 9.07868 6.12367 9.59718 6.12501 10.1205V36.3437C6.12501 38.5548 7.90943 40.3392 10.1001 40.3392H32.095L31.064 36.748L33.5487 39.0571L35.8946 41.2294L40.0677 44.9167V10.1205C40.0691 9.59718 39.9673 9.07868 39.7683 8.59464C39.5692 8.11061 39.2768 7.67051 38.9077 7.29949C38.5385 6.92847 38.0999 6.63379 37.6169 6.43227C37.1339 6.23075 36.616 6.12634 36.0926 6.125ZM28.6038 31.456C28.6038 31.456 27.9055 30.623 27.3257 29.8818C29.8655 29.1632 30.8353 27.5748 30.8353 27.5748C30.0391 28.0974 29.2836 28.469 28.6038 28.7222C26.1286 29.7581 23.4029 30.0407 20.7678 29.5347C19.7942 29.3435 18.8401 29.0633 17.9177 28.6977C17.4312 28.5129 16.9584 28.2939 16.5028 28.0423C16.4436 27.9994 16.3864 27.9831 16.3293 27.9443C16.2987 27.9298 16.2715 27.9089 16.2496 27.883C15.9005 27.6911 15.7066 27.5564 15.7066 27.5564C15.7066 27.5564 16.6376 29.108 19.1018 29.8451C18.52 30.5801 17.8013 31.456 17.8013 31.456C13.5158 31.3192 11.8886 28.5078 11.8886 28.5078C11.8886 22.2623 14.6816 17.201 14.6816 17.201C17.4746 15.1043 20.1308 15.1635 20.1308 15.1635L20.3248 15.3962C16.8336 16.4068 15.2227 17.9381 15.2227 17.9381C15.2227 17.9381 15.6514 17.7053 16.3681 17.3766C18.4424 16.466 20.09 16.2129 20.7699 16.1537C20.8863 16.1353 20.9843 16.1149 21.1006 16.1149C24.4637 15.6617 27.8834 16.3008 30.8557 17.9381C30.8557 17.9381 29.3224 16.4844 26.0251 15.4758L26.2967 15.1655C26.2967 15.1655 28.9549 15.1063 31.7459 17.2031C31.7459 17.2031 34.5389 22.2644 34.5389 28.5098C34.5389 28.5078 32.8913 31.3192 28.6038 31.456Z" fill="#B1B1B1"/></svg>